<svg width="114" height="114" viewBox="0 0 114 114" fill="none" xmlns="http://www.w3.org/2000/svg">
<circle cx="57" cy="57" r="54" stroke="#12A89D" stroke-width="5.5"/>
<g clip-path="url(#clip0)">
<path d="M74.6605 74.619C74.7739 74.5517 74.8873 74.4848 74.9999 74.4162C80.3354 71.1665 84.8827 66.4371 88.1504 60.7396L92.6643 52.8688L89.0414 50.3108L84.5274 58.1816C78.6246 68.4743 68.536 74.6192 57.5409 74.6192C46.5458 74.6192 36.4575 68.4743 30.5544 58.1816L28.9225 55.3358L34.018 56.5082L34.8899 51.8428L22.5944 49.0137L20.0448 62.6566L24.2495 63.624L25.3153 57.9208L26.9317 60.7395C30.1994 66.4371 34.7466 71.1664 40.082 74.4161C40.1947 74.4847 40.3082 74.5517 40.4214 74.6189H20V90.5012H93V74.6189H74.6605V74.619ZM44.2462 79.3838H49.9417L48.5104 85.7367H42.8148L44.2462 79.3838ZM38.3884 85.7367H32.8718L34.3031 79.3838H39.8198L38.3884 85.7367ZM54.368 79.3838H60.0635L58.6322 85.7367H52.9366L54.368 79.3838ZM64.4898 79.3838H70.1854L68.754 85.7367H63.0584L64.4898 79.3838ZM74.6116 79.3838H80.3073L78.8759 85.7367H73.1802L74.6116 79.3838ZM24.2941 79.3838H29.8769L28.4455 85.7367H24.2941V79.3838ZM88.7059 85.7367H83.302L84.7334 79.3838H88.7059V85.7367Z" fill="#12A89D"/>
<path d="M57.5407 70.3558C67.0118 70.3558 74.7172 61.806 74.7172 51.297C74.7172 46.9136 72.0259 41.0363 66.718 33.8284C62.9178 28.6679 59.1751 24.7188 59.0176 24.5531L57.5407 23L56.0638 24.5531C55.9064 24.7186 52.1636 28.6679 48.3635 33.8284C43.0556 41.0365 40.3644 46.9137 40.3644 51.297C40.3644 61.806 48.0696 70.3558 57.5407 70.3558ZM51.6609 36.8809C53.8813 33.8623 56.1251 31.2313 57.5407 29.635C58.9565 31.2313 61.2002 33.8621 63.4205 36.8809C67.9362 43.02 70.4231 48.1397 70.4231 51.297C70.4231 59.1787 64.6441 65.5911 57.5407 65.5911C50.4374 65.5911 44.6584 59.1787 44.6584 51.297C44.6585 48.1399 47.1454 43.02 51.6609 36.8809Z" fill="#12A89D"/>
</g>
<defs>
<clipPath id="clip0">
<rect width="73" height="81" fill="white" transform="translate(20 16)"/>
</clipPath>
</defs>
</svg>
