<svg width="114" height="114" viewBox="0 0 114 114" fill="none" xmlns="http://www.w3.org/2000/svg">
<circle cx="57" cy="57" r="54" stroke="#12A89D" stroke-width="5.5"/>
<g clip-path="url(#clip0)">
<path d="M81.4398 39.9954C79.4756 39.9954 77.6472 40.5908 76.1268 41.6105V31.4946C76.1268 26.5944 70.8185 23.5647 66.6211 25.9367C63.6083 21.2401 56.5207 22.4334 55.0965 27.6917C51.1851 26.1378 46.8533 28.7576 46.4103 32.9343C42.2431 31.4279 37.8734 34.5356 37.8734 38.9328V60.3587C37.8734 61.5324 38.8248 62.4839 39.9986 62.4839C41.1724 62.4839 42.1238 61.5324 42.1238 60.3587V38.9328C42.1238 38.3647 42.3447 37.8309 42.746 37.4297C44.0811 36.0949 46.3742 37.0523 46.3742 38.9328V52.7466C46.3742 53.9202 47.3256 54.8717 48.4994 54.8717C49.6732 54.8717 50.6246 53.9202 50.6246 52.7466C50.6246 50.7511 50.6246 35.6888 50.6246 33.6198C50.6246 33.0517 50.8455 32.5179 51.2467 32.1168C52.5819 30.7819 54.875 31.7393 54.875 33.6198V52.7466C54.875 53.9202 55.8264 54.8717 57.0002 54.8717C58.1739 54.8717 59.1254 53.9202 59.1254 52.7466C59.1254 50.1348 59.1254 32.232 59.1254 29.3694C59.1254 28.8013 59.3463 28.2675 59.7475 27.8664C61.0827 26.5315 63.3758 27.4889 63.3758 29.3694V52.7466C63.3758 53.9202 64.3272 54.8717 65.501 54.8717C66.6747 54.8717 67.6261 53.9202 67.6261 52.7466V31.4946C67.6261 30.9265 67.847 30.3927 68.2483 29.9916C69.5835 28.6567 71.8765 29.6141 71.8765 31.4946V59.2555C64.6486 60.1591 58.37 65.607 57.0291 73.649C56.8132 74.9446 57.8121 76.1241 59.128 76.1241C60.148 76.1241 61.0484 75.3875 61.2217 74.3481C62.3432 67.6171 67.8976 63.3727 74.0019 63.3727C75.1756 63.3727 76.1271 62.4211 76.1271 61.2475V49.5589C76.1271 46.6293 78.5105 44.2459 81.44 44.2459C82.0259 44.2459 82.5026 44.7226 82.5026 45.3085V66.5605C82.5026 77.7163 73.4742 86.7498 62.3133 86.7498C57.7719 86.7498 53.4832 85.2774 49.9114 82.4918C48.9857 81.7699 47.6506 81.9353 46.9286 82.8607C46.2068 83.7862 46.3721 85.1216 47.2975 85.8434C51.6233 89.2169 56.8157 91.0001 62.3133 91.0001C75.8181 91.0001 86.753 80.0711 86.753 66.5603V45.3084C86.7528 42.3788 84.3692 39.9954 81.4398 39.9954Z" fill="#12A89D"/>
<path d="M52.7497 77.1862C52.7497 76.0126 51.7982 75.061 50.6245 75.061C45.9342 75.061 42.1237 71.266 42.1237 66.5603C42.1237 65.3866 41.1723 64.4351 39.9985 64.4351C38.8247 64.4351 37.8733 65.3866 37.8733 66.5603C37.8733 71.2492 34.0789 75.061 29.3725 75.061C28.1987 75.061 27.2473 76.0126 27.2473 77.1862C27.2473 78.3599 28.1987 79.3114 29.3725 79.3114C34.0599 79.3114 37.8733 83.1248 37.8733 87.8122C37.8733 88.9858 38.8247 89.9374 39.9985 89.9374C41.1723 89.9374 42.1237 88.9858 42.1237 87.8122C42.1237 83.1235 45.9179 79.3114 50.6245 79.3114C51.7982 79.3114 52.7497 78.36 52.7497 77.1862ZM39.9938 80.7637C39.0521 79.3494 37.8352 78.1325 36.4209 77.1907C37.8313 76.2515 39.0565 75.0282 39.9986 73.6155C40.9341 75.0185 42.155 76.2434 43.5693 77.1864C42.1598 78.1262 40.9345 79.351 39.9938 80.7637Z" fill="#12A89D"/>
</g>
<defs>
<clipPath id="clip0">
<rect width="68" height="68" fill="white" transform="translate(23 23)"/>
</clipPath>
</defs>
</svg>
