<svg width="114" height="114" viewBox="0 0 114 114" fill="none" xmlns="http://www.w3.org/2000/svg">
<path fill-rule="evenodd" clip-rule="evenodd" d="M80.5319 64.6858L91.2187 83.1955C92.0131 84.5752 91.2093 86.3178 89.6677 86.6327L80.6434 88.4809L74.534 95.3706C73.4887 96.5504 71.556 96.4043 70.7341 94.9133L59.9693 76.2687C58.6527 76.8046 57.1932 76.8989 55.7686 76.5634L45.1246 94.9944C44.339 96.3503 42.4313 96.5695 41.3684 95.3706L35.2603 88.4809L26.2354 86.6327C24.6934 86.3178 23.8894 84.5752 24.6847 83.1955L34.6579 65.9209C33.1591 62.7378 34.0477 58.667 33.0586 56.2782C31.9499 53.602 27.1561 51.3022 27.2292 46.5862C27.305 41.7004 32.114 39.2287 33.3417 36.2662C34.4644 33.555 32.6924 28.5578 36.0791 25.2742C39.5855 21.8754 44.742 23.5275 47.7085 22.2986C50.3844 21.1903 52.6838 16.3965 57.4002 16.4696C62.286 16.5457 64.7571 21.3548 67.7199 22.5814C70.432 23.7051 75.4289 21.9334 78.7119 25.3194C82.1119 28.8266 80.4589 33.983 81.6874 36.9492C82.7958 39.6254 87.5895 41.9245 87.5165 46.6405C87.4407 51.527 82.6326 53.9975 81.4047 56.9612C80.6558 58.7687 81.2068 62.0655 80.5319 64.6858ZM59.2954 38.4942C58.4043 37.1923 56.4491 37.1336 55.4937 38.4334L53.4451 41.2135L49.8434 42.5441C49.6153 42.6165 49.394 42.7255 49.1886 42.8725C48.1405 43.6235 47.8998 45.0811 48.6502 46.1286L50.6728 48.9531L50.8307 52.8847C50.8916 54.4095 52.3883 55.4757 53.8571 55.0097L57.1514 53.9641L60.9631 55.0335C62.4295 55.4439 63.9087 54.3533 63.9172 52.802L63.9403 49.347L66.1305 46.0634C66.9767 44.799 66.3986 43.0501 64.9288 42.5625L61.6433 41.4704L59.2954 38.4942ZM57.4392 43.6485C56.1679 45.3736 56.2524 45.1489 54.2261 45.897C55.4084 47.5479 55.2699 47.3819 55.3594 49.6536C57.4064 49.0034 57.1982 49.1351 59.2857 49.7228C59.3001 47.5682 59.4365 47.7102 60.5695 46.0135C58.5263 45.3346 58.7014 45.2484 57.4392 43.6485ZM57.373 29.6924C48.0281 29.6924 40.4517 37.2688 40.4517 46.6131C40.4517 55.958 48.0281 63.5347 57.373 63.5347C66.7179 63.5347 74.2937 55.958 74.2937 46.6131C74.2937 37.2688 66.7173 29.6924 57.373 29.6924ZM66.0359 37.9505C61.2522 33.1661 53.4935 33.1661 48.7104 37.9505C43.9264 42.7345 43.9264 50.4916 48.7104 55.2769C53.4945 60.061 61.2522 60.061 66.0359 55.2769C70.8203 50.4916 70.8203 42.7345 66.0359 37.9505ZM63.7608 73.5363L73.1915 89.8717L77.6329 84.8626C77.9593 84.4718 78.4151 84.1856 78.9529 84.0758L85.5747 82.7208L77.5601 68.8381C74.2053 71.0255 69.6697 69.8376 67.0372 70.9278C65.976 71.3676 64.7977 72.5597 63.7608 73.5363ZM51.6875 74.3141C50.2636 73.1259 48.5047 71.2578 47.0258 70.6453C44.8877 69.7595 41.0341 70.6915 38.0545 69.3372L30.3277 82.7205L36.9499 84.0758C37.4874 84.185 37.9431 84.4718 38.2696 84.8626L42.7072 89.8677L51.6875 74.3141ZM61.383 23.6349C59.9983 22.3789 58.6334 21.1416 57.3455 21.1219C55.243 21.0891 53.0266 25.1344 49.4776 26.6048C45.7324 28.1552 41.0828 26.9101 39.3265 28.6121C37.8164 30.0773 39.1042 34.5158 37.6466 38.036C36.094 41.7822 31.9187 44.1984 31.8812 46.6409C31.8484 48.744 35.8933 50.9598 37.3635 54.5088C38.9148 58.2537 37.6691 62.9035 39.3717 64.6602C40.8359 66.1706 45.2751 64.8818 48.795 66.3407C52.5418 67.8923 54.9577 72.0677 57.4002 72.1052C59.5027 72.1383 61.7188 68.0937 65.2681 66.6226C69.0133 65.0716 73.6625 66.3176 75.4192 64.6143C76.9306 63.1501 75.6415 58.711 77.0994 55.1911C78.6513 51.4446 82.827 49.0287 82.8645 46.5862C82.8973 44.4834 78.8524 42.2682 77.3822 38.718C75.8309 34.9727 77.0763 30.3235 75.374 28.5672C73.9094 27.0568 69.4703 28.3446 65.9507 26.887C64.1438 26.1385 62.7563 24.88 61.383 23.6349Z" fill="#12A89D"/>
<circle cx="57" cy="57" r="54" stroke="#12A89D" stroke-width="5.5"/>
</svg>
