<svg width="114" height="114" viewBox="0 0 114 114" fill="none" xmlns="http://www.w3.org/2000/svg">
<path d="M74.6605 75.6054C74.7739 75.538 74.8873 75.4712 74.9999 75.4026C80.3354 72.1529 84.8827 67.4234 88.1504 61.7259L92.6643 53.8551L89.0414 51.2971L84.5274 59.1679C78.6246 69.4606 68.536 75.6055 57.5409 75.6055C46.5458 75.6055 36.4575 69.4606 30.5544 59.1679L28.9225 56.3221L34.018 57.4946L34.8899 52.8291L22.5944 50L20.0448 63.6429L24.2495 64.6103L25.3153 58.9071L26.9317 61.7258C30.1994 67.4234 34.7466 72.1527 40.082 75.4024C40.1947 75.471 40.3082 75.538 40.4214 75.6052H20V91.4876H93V75.6052H74.6605V75.6054ZM44.2462 80.3701H49.9417L48.5104 86.723H42.8148L44.2462 80.3701ZM38.3884 86.723H32.8718L34.3031 80.3701H39.8198L38.3884 86.723ZM54.368 80.3701H60.0635L58.6322 86.723H52.9366L54.368 80.3701ZM64.4898 80.3701H70.1854L68.754 86.723H63.0584L64.4898 80.3701ZM74.6116 80.3701H80.3073L78.8759 86.723H73.1802L74.6116 80.3701ZM24.2941 80.3701H29.8769L28.4455 86.723H24.2941V80.3701ZM88.7059 86.723H83.302L84.7334 80.3701H88.7059V86.723Z" fill="#12A89D"/>
<circle cx="57" cy="57" r="54" stroke="#12A89D" stroke-width="5.5"/>
<g clip-path="url(#clip0)">
<path d="M41 54.5C41.0107 63.6082 48.3907 70.9893 57.4978 71C57.9822 71 58.4456 70.973 58.8956 70.9295C67.4267 70.1968 73.9826 63.0637 73.9955 54.5C74.1158 48.048 71.8191 41.7842 67.5569 36.9395C67.0734 36.4571 66.3252 36.3622 65.7367 36.7088C65.1482 37.0553 64.8681 37.7556 65.0552 38.4125C65.5907 40.286 66.2911 44.69 65.0447 46.3445C64.6779 46.8174 64.0917 47.0656 63.4969 47C62.1246 47 61.7857 46.4495 61.6582 46.25C60.6323 44.5895 61.7587 40.337 63.3395 37.1765C65.1665 33.8251 65.154 29.7722 63.3065 26.432C62.1135 24.341 59.9047 23.0359 57.4978 23C56.9577 23.0032 56.461 23.2965 56.1974 23.768C55.9335 24.2418 55.9421 24.8203 56.2199 25.286C56.3879 25.5665 57.7752 28.1015 54.9376 30.9395C53.0758 32.6439 51.622 34.7459 50.6842 37.0895C48.958 35.3302 46.7653 34.1004 44.364 33.545C43.8329 33.4118 43.2715 33.5786 42.8993 33.9803C42.527 34.3819 42.4032 34.9545 42.5763 35.474C43.4029 38.6428 43.392 41.9721 42.5448 45.1355C41.6384 48.1797 41.1194 51.326 41 54.5ZM52.0595 65.1215C50.8827 63.3853 50.4251 61.2602 50.7832 59.1935C51.8385 60.036 53.1479 60.4965 54.4982 60.5C55.3265 60.5 55.998 59.8284 55.998 59C55.998 58.9805 55.998 58.0805 56.1389 56.8565C57.1475 58.2484 58.7794 59.051 60.4973 59C61.8139 58.9969 63.0926 58.5587 64.1343 57.7535C64.4688 60.1685 64.5498 63.5945 62.9105 65.7935C61.5816 67.3782 59.5557 68.2041 57.4978 68C55.3362 67.9379 53.3265 66.8741 52.0595 65.1215ZM45.4604 45.8645C46.1646 43.072 46.3481 40.1736 46.0018 37.3145C47.8229 38.1546 49.2739 39.6319 50.0813 41.468C50.3192 42.1564 51.0172 42.5743 51.7363 42.4589C52.4553 42.3436 52.9876 41.7283 52.9984 41C52.9984 37.121 55.6395 34.4795 57.0583 33.0605C58.814 31.4524 59.7734 29.1532 59.6815 26.774C60.1084 27.1178 60.4714 27.5341 60.7538 28.004C62.0643 30.4577 62.0241 33.4123 60.6473 35.8295C59.9799 37.1675 56.7599 44.0345 59.0995 47.8205C60.0534 49.3001 61.742 50.137 63.4969 50C65.0334 50.0618 66.5038 49.3718 67.4384 48.1505C68.2447 46.9541 68.6889 45.5505 68.7177 44.108C70.2322 47.3622 71.0101 50.9106 70.9959 54.5C70.9956 58.1592 69.5047 61.6603 66.867 64.196C67.5245 60.8337 67.376 57.3633 66.4335 54.0695C66.2578 53.4815 65.7417 53.0598 65.1306 53.005C64.5194 52.9501 63.9365 53.2732 63.6589 53.8205C63.0336 55.0281 61.8483 55.8452 60.4973 56C57.5607 56 57.4978 51.68 57.4978 51.5C57.4984 50.8037 57.0199 50.1985 56.3423 50.0387C55.6647 49.8788 54.9662 50.2063 54.6556 50.8295C53.7708 52.8219 53.2429 54.9543 53.0959 57.1295C52.3638 56.6931 51.7588 56.0725 51.3411 55.3295C51.0702 54.786 50.4983 54.4595 49.8926 54.5025C49.2868 54.5455 48.7668 54.9496 48.5755 55.526C47.4788 58.3647 47.3957 61.495 48.34 64.388C45.5754 61.8433 44.0015 58.2578 43.9996 54.5C44.1221 51.572 44.6108 48.6709 45.4544 45.8645H45.4604Z" fill="#12A89D" stroke="#12A89D"/>
</g>
<defs>
<clipPath id="clip0">
<rect width="71" height="71" fill="white" transform="translate(22 18)"/>
</clipPath>
</defs>
</svg>
