<svg width="90" height="88" viewBox="0 0 90 88" fill="none" xmlns="http://www.w3.org/2000/svg">
<path d="M85.179 30.8916C83.9914 27.2143 84.4977 21.6942 81.411 17.4321C78.3 13.1363 72.8893 11.9153 69.834 9.68081C66.8109 7.46983 63.9984 2.65853 58.9133 0.99915C53.9715 -0.613467 48.9182 1.57483 45 1.57483C41.0824 1.57483 36.0294 -0.613994 31.0867 0.998975C26.0024 2.658 23.1877 7.47036 20.1665 9.68028C17.1146 11.9122 11.6998 13.1365 8.58937 17.4315C5.50529 21.6902 6.00645 27.2229 4.82098 30.8915C3.69281 34.383 0 38.5734 0 44.0002C0 49.4302 3.68859 53.6045 4.82098 57.1087C6.00855 60.786 5.5023 66.3061 8.58902 70.5683C11.6998 74.8642 17.1104 76.085 20.166 78.3197C23.1885 80.5303 26.0016 85.342 31.0867 87.0012C36.0251 88.6127 41.0864 86.4255 45 86.4255C48.9081 86.4255 53.9812 88.6105 58.9133 87.0014C63.9977 85.3423 66.8108 80.531 69.8335 78.32C72.8854 76.0882 78.3002 74.8638 81.4106 70.5688C84.4949 66.31 83.9934 60.7778 85.179 57.1089C86.3072 53.6172 90 49.4267 90 44.0002C90 38.5705 86.3123 34.3974 85.179 30.8916ZM78.4886 54.9468C77.1043 59.2314 77.467 64.0266 75.7162 66.4443C73.9419 68.8941 69.2803 70.0131 65.6833 72.6442C62.1257 75.246 59.6322 79.3703 56.7322 80.3166C53.9886 81.212 49.5174 79.3939 45.0002 79.3939C40.4499 79.3939 36.0248 81.2159 33.268 80.3166C30.3683 79.3703 27.8784 75.2488 24.3169 72.6441C20.7411 70.029 16.053 68.8869 14.2838 66.4439C12.5387 64.0343 12.8876 59.2059 11.5117 54.9469C10.1631 50.7741 7.03125 47.1609 7.03125 44.0002C7.03125 40.8363 10.1603 37.2356 11.5114 33.0536C12.8957 28.7691 12.533 23.9736 14.2838 21.5561C16.0571 19.1078 20.7221 17.9851 24.3169 15.3561C27.8858 12.7459 30.3636 8.6314 33.2677 7.68376C36.009 6.78938 40.4947 8.60644 44.9998 8.60644C49.5584 8.60644 53.9724 6.78323 56.732 7.68376C59.6313 8.62981 62.1234 12.7529 65.6833 15.3563C69.2585 17.9714 73.947 19.1134 75.7162 21.5562C77.4617 23.9664 77.1108 28.7898 78.4883 33.0532V33.0534C79.8369 37.2263 82.9688 40.8394 82.9688 44.0002C82.9688 47.1641 79.8397 50.7648 78.4886 54.9468ZM61.197 32.7159C62.57 34.0889 62.57 36.3148 61.197 37.6877L43.6003 55.2844C42.2272 56.6575 40.0011 56.6573 38.6283 55.2844L28.8032 45.4593C27.4301 44.0863 27.43 41.8604 28.803 40.4875C30.176 39.1147 32.4023 39.1145 33.7748 40.4875L41.1142 47.8267L56.2249 32.7161C57.5979 31.343 59.824 31.343 61.197 32.7159Z" fill="#12A89D"/>
</svg>
