<svg width="66" height="56" viewBox="0 0 66 56" fill="none" xmlns="http://www.w3.org/2000/svg">
<path d="M37.7143 0C45.5714 0 52.25 2.72222 57.75 8.16667C63.25 13.6111 66 20.2222 66 28C66 35.7778 63.25 42.3889 57.75 47.8333C52.25 53.2778 45.5714 56 37.7143 56C29.9554 56 23.2768 53.2778 17.6786 47.8333L22.2455 43.3125C26.4688 47.5903 31.625 49.7292 37.7143 49.7292C43.8036 49.7292 48.9844 47.6146 53.2567 43.3854C57.529 39.1562 59.6652 34.0278 59.6652 28C59.6652 21.9722 57.529 16.8438 53.2567 12.6146C48.9844 8.38542 43.8036 6.27083 37.7143 6.27083C31.625 6.27083 26.4442 8.38542 22.1719 12.6146C17.8996 16.8438 15.7634 21.9722 15.7634 28H25.192L12.375 40.5417L12.2277 40.1042L0 28H9.42857C9.42857 20.2222 12.1786 13.6111 17.6786 8.16667C23.1786 2.72222 29.8571 0 37.7143 0ZM34.6205 15.6042H39.3348V28.7292L50.2366 35.2917L48.0268 39.0833L34.6205 31.0625V15.6042Z" fill="#12A89D"/>
</svg>
