<svg width="88" height="88" viewBox="0 0 88 88" fill="none" xmlns="http://www.w3.org/2000/svg">
<path d="M75.4374 73.149C76.5723 71.8574 77.5716 70.4513 78.416 68.9582L83.588 71.7471C82.5136 73.664 81.2331 75.4659 79.7734 77.1147L75.4374 73.149Z" fill="#12A89D" stroke="#12A89D"/>
<path d="M70.0199 77.7802L73.2615 82.6811C71.4037 83.8669 69.4226 84.8502 67.3599 85.6102L65.4191 80.064C67.0243 79.4654 68.5679 78.6992 70.0199 77.7802Z" fill="#12A89D" stroke="#12A89D"/>
<path d="M53.6058 55.5131L53.7813 55.3634V55.1327V40.7188H59.6563V58.0741L50.5465 65.8444L46.7339 61.3744L53.6058 55.5131Z" fill="#12A89D" stroke="#12A89D"/>
<path d="M80.9934 62.3207C81.3761 60.6545 81.5863 58.9427 81.6204 57.2188H87.4963C87.4609 59.426 87.1909 61.619 86.6924 63.7519L80.9934 62.3207Z" fill="#12A89D" stroke="#12A89D"/>
<path d="M73.0625 6.875V7.375H73.5625H77.6875C83.0977 7.375 87.5 11.7773 87.5 17.1875V22.875H81.625V17.1875C81.625 15.0159 79.8591 13.25 77.6875 13.25H73.5625H73.0625V13.75V20.125H67.1875V13.75V13.25H66.6875H21.3125H20.8125V13.75V20.125H14.9375V13.75V13.25H14.4375H10.3125C8.14092 13.25 6.375 15.0159 6.375 17.1875V25.2656V25.7656H6.875H33.3247C31.9471 26.8168 30.6307 27.9668 29.3848 29.2127C28.6024 29.9951 27.8601 30.8058 27.1548 31.6406H6.875H6.375V32.1406V77.6875C6.375 79.8591 8.14092 81.625 10.3125 81.625H22H25.6094H27.1546C27.8599 82.4598 28.6023 83.2706 29.3846 84.0529L29.7382 83.6993L29.3846 84.0529C30.6306 85.2988 31.9471 86.4488 33.3247 87.5H25.6094H22H10.3125C4.90233 87.5 0.5 83.0977 0.5 77.6875V17.1875C0.5 11.7773 4.90233 7.375 10.3125 7.375H14.4375H14.9375V6.875V0.5H20.8125V6.875V7.375H21.3125H66.6875H67.1875V6.875V0.5H73.0625V6.875Z" fill="#12A89D" stroke="#12A89D"/>
<path d="M80.7348 37.4466L81.625 38.5574V37.1339V30.75H87.5V48.6562H69.5938V42.7812H76.4043H77.3903L76.8076 41.9858C72.1834 35.6726 64.7835 31.8125 56.7188 31.8125C42.985 31.8125 31.8125 42.985 31.8125 56.7188C31.8125 70.2855 42.7148 81.3528 56.2188 81.6201V84.5625H56.7188L57.2188 84.5625L57.2189 81.6201C57.6326 81.6119 58.047 81.5936 58.4588 81.5652L58.9797 87.4181C58.2303 87.4725 57.4729 87.5 56.7217 87.5H56.7216H56.7216H56.7216H56.7216H56.7215H56.7215H56.7215H56.7214H56.7214H56.7214H56.7213H56.7213H56.7212H56.7212H56.7212H56.7211H56.7211H56.7211H56.7211H56.721H56.721H56.721H56.7209H56.7209H56.7209H56.7208H56.7208H56.7208H56.7207H56.7207H56.7207H56.7206H56.7206H56.7206H56.7205H56.7205H56.7205H56.7204H56.7204H56.7204H56.7203H56.7203H56.7203H56.7202H56.7202H56.7202H56.7201H56.7201H56.7201H56.72H56.72H56.72H56.7199H56.7199H56.7199H56.7199H56.7198H56.7198H56.7198H56.7197H56.7197H56.7197H56.7196H56.7196H56.7196H56.7195H56.7195H56.7195H56.7194H56.7194H56.7194H56.7194H56.7193H56.7193H56.7193H56.7192H56.7192H56.7192H56.7191H56.7191H56.7191H56.7191H56.719H56.719H56.719H56.7189H56.7189H56.7189H56.7188H56.7188H56.7188H56.7187H56.7187H56.7187H56.7187H56.7186H56.7186H56.7186H56.7185H56.7185H56.7185H56.7184H56.7184C39.7462 87.4998 25.9375 73.691 25.9375 56.7188C25.9375 39.7464 39.7464 25.9375 56.7188 25.9375C66.2268 25.9375 74.9878 30.2754 80.7348 37.4466Z" fill="#12A89D" stroke="#12A89D"/>
</svg>
