<svg width="96" height="96" viewBox="0 0 96 96" fill="none" xmlns="http://www.w3.org/2000/svg">
<g clip-path="url(#clip0)">
<path d="M91.3047 31.7567H82.3471C80.9676 14.0147 66.0899 0 48 0C29.9101 0 15.0324 14.0147 13.6529 31.7567H4.69531C3.20678 31.7567 2 32.9635 2 34.452V63.3219C2 64.8104 3.20678 66.0172 4.69531 66.0172H16.2433C17.7318 66.0172 18.9386 64.8104 18.9386 63.3219V34.452C18.9386 18.4275 31.9755 5.39062 48 5.39062C64.0245 5.39062 77.0614 18.4275 77.0614 34.452V63.3219C77.0614 72.9788 69.2047 80.8355 59.5478 80.8355H56.027C54.8984 77.4834 51.7276 75.0616 48 75.0616C43.3301 75.0616 39.5306 78.8609 39.5306 83.5308C39.5306 88.2007 43.3301 92 48 92C51.7276 92 54.8984 89.5782 56.027 86.2261H59.5478C71.2652 86.2261 80.9543 77.381 82.2926 66.0172H91.3047C92.7932 66.0172 94 64.8104 94 63.3219V34.452C94 32.9635 92.7932 31.7567 91.3047 31.7567ZM13.548 60.6266H7.39062V37.1473H13.548V60.6266ZM48 86.6094C46.3025 86.6094 44.9212 85.2283 44.9212 83.5308C44.9212 81.8333 46.3025 80.4522 48 80.4522C49.6975 80.4522 51.0788 81.8333 51.0788 83.5308C51.0788 85.2283 49.6975 86.6094 48 86.6094ZM88.6094 60.6266H82.452V37.1473H88.6094V60.6266Z" fill="#12A89D" stroke="#12A89D"/>
</g>
<defs>
<clipPath id="clip0">
<rect width="96" height="96" fill="white"/>
</clipPath>
</defs>
</svg>
