<svg width="61" height="61" viewBox="0 0 61 61" fill="none" xmlns="http://www.w3.org/2000/svg">
<path d="M48 0.489882C46.5 0.489882 45 0.999882 43.77 2.22988L18 27.9999L22.5 32.4999L12 42.9999H6L0 54.9999L6 60.9999L18 54.9999V48.9999L28.5 38.4999L33 42.9999L58.77 17.2299C60.63 14.4999 61.11 11.1099 58.77 8.76988L52.23 2.22988C51.678 1.67061 51.0189 1.22829 50.2921 0.929341C49.5653 0.630389 48.7858 0.480929 48 0.489882ZM48 6.99988L54 12.9999L33 33.9999L27 27.9999L48 6.99988Z" fill="#12A89D"/>
</svg>
