<svg width="55" height="55" viewBox="0 0 55 55" fill="none" xmlns="http://www.w3.org/2000/svg">
<path d="M53.91 13.81C54.1881 13.5324 54.4088 13.2028 54.5593 12.8399C54.7098 12.4769 54.7873 12.0879 54.7873 11.695C54.7873 11.3021 54.7098 10.913 54.5593 10.5501C54.4088 10.1872 54.1881 9.85752 53.91 9.57998L45.42 1.08998C45.1425 0.811868 44.8128 0.591225 44.4499 0.440681C44.087 0.290136 43.6979 0.212646 43.305 0.212646C42.9121 0.212646 42.523 0.290136 42.1601 0.440681C41.7972 0.591225 41.4675 0.811868 41.19 1.08998L27.72 14.56L16.05 2.88998C13.71 0.549979 9.9 0.549979 7.56 2.88998L1.86 8.58998C-0.48 10.93 -0.48 14.74 1.86 17.08L13.53 28.75L0 42.28V55H12.72L26.28 41.44L37.95 53.11C40.8 55.96 44.64 54.91 46.44 53.11L52.14 47.41C54.48 45.07 54.48 41.26 52.14 38.92L40.47 27.25L53.91 13.81ZM6.12 12.82L11.79 7.11998L15.6 10.93L12.06 14.5L16.29 18.73L19.86 15.16L23.46 18.76L17.76 24.46L6.12 12.82ZM39.81 35.14L36.24 38.71L40.47 42.94L44.04 39.37L47.85 43.18L42.15 48.88L30.48 37.21L36.18 31.51L39.81 35.14ZM10.23 49H6V44.77L34.83 15.94L38.73 19.84L39.06 20.17L10.23 49ZM39.06 11.68L43.29 7.44998L47.52 11.68L43.29 15.91L39.06 11.68Z" fill="#12A89D"/>
</svg>
