<svg width="93" height="93" viewBox="0 0 93 93" fill="none" xmlns="http://www.w3.org/2000/svg">
<path d="M18.8457 46.5C18.8457 31.2519 31.2519 18.8457 46.5 18.8457C61.7481 18.8457 74.1543 31.2519 74.1543 46.5C74.1543 61.7481 61.7481 74.1543 46.5 74.1543C31.2519 74.1543 18.8457 61.7481 18.8457 46.5ZM23.2949 46.5C23.2949 59.2957 33.7043 69.7051 46.5 69.7051C59.2957 69.7051 69.7051 59.2957 69.7051 46.5C69.7051 33.7043 59.2957 23.2949 46.5 23.2949C33.7043 23.2949 23.2949 33.7043 23.2949 46.5Z" fill="#12A89D" stroke="#12A89D"/>
<mask id="path-2-inside-1" fill="white">
<path d="M90.2754 36.5098H84.2598C83.3692 33.1367 82.0278 29.9097 80.2545 26.8737L84.5181 22.6103C85.0291 22.0993 85.3162 21.4063 85.3162 20.6836C85.3162 19.961 85.0291 19.2681 84.5181 18.7571L74.2431 8.48207C73.1792 7.41802 71.454 7.41802 70.3899 8.48207L66.1263 12.7457C63.0901 10.9722 59.8633 9.63095 56.4902 8.74037V2.72461C56.4902 1.2199 55.2703 0 53.7656 0H39.2344C37.7297 0 36.5098 1.2199 36.5098 2.72461V8.74037C33.1367 9.63095 29.9099 10.9722 26.8739 12.7455L22.6103 8.48189C21.5464 7.41784 19.8212 7.41784 18.7571 8.48189L8.48207 18.7569C7.97112 19.2679 7.68394 19.9609 7.68394 20.6834C7.68394 21.4062 7.97112 22.0989 8.48207 22.6101L12.7457 26.8736C10.9722 29.9099 9.63095 33.1367 8.74037 36.5098H2.72461C1.2199 36.5098 0 37.7297 0 39.2344V53.7656C0 55.2703 1.2199 56.4902 2.72461 56.4902H8.74018C9.63077 59.8633 10.9722 63.0901 12.7455 66.1261L8.48189 70.3896C7.97094 70.9005 7.68376 71.5935 7.68376 72.3162C7.68376 73.0388 7.97075 73.7317 8.48189 74.2427L18.7569 84.5179C19.2679 85.0289 19.9609 85.3161 20.6834 85.3161C21.406 85.3161 22.0989 85.0289 22.6099 84.5179L26.8736 80.2543C29.9095 82.0276 33.1363 83.3689 36.5094 84.2596V90.2754C36.5094 91.7801 37.7293 93 39.234 93H53.7653C55.27 93 56.4899 91.7801 56.4899 90.2754V84.2598C59.8629 83.3692 63.0898 82.0278 66.1257 80.2545L70.3894 84.5181C70.9003 85.0291 71.5933 85.3162 72.3159 85.3162C73.0386 85.3162 73.7314 85.0291 74.2423 84.5181L84.5174 74.2429C85.0283 73.7319 85.3155 73.039 85.3155 72.3164C85.3155 71.5937 85.0283 70.9009 84.5174 70.3897L80.2537 66.1263C82.0271 63.0903 83.3683 59.8635 84.2591 56.4904H90.2754C91.7801 56.4904 93 55.2705 93 53.7658V39.2346C93 37.7297 91.7801 36.5098 90.2754 36.5098ZM87.5508 51.041H82.0987C80.8028 51.041 79.6863 51.9536 79.4285 53.2236C78.575 57.428 76.9259 61.3967 74.527 65.0192C73.8117 66.0994 73.9559 67.534 74.8721 68.4502L78.7383 72.3162L72.3164 78.7381L68.4502 74.8719C67.5342 73.9557 66.0996 73.8115 65.0193 74.5268C61.3967 76.9257 57.4282 78.5748 53.2238 79.4284C51.9539 79.6861 51.0412 80.8027 51.0412 82.0985V87.5508H41.9592V82.0987C41.9592 80.8028 41.0466 79.6863 39.7766 79.4285C35.5721 78.575 31.6035 76.9259 27.981 74.527C26.9006 73.8115 25.4662 73.9559 24.5502 74.8721L20.684 78.7383L14.2621 72.3164L18.1283 68.4504C19.0445 67.5342 19.1887 66.0997 18.4734 65.0193C16.0745 61.3967 14.4254 57.4282 13.5718 53.2238C13.3137 51.9538 12.1972 51.041 10.9013 51.041H5.44922V41.959H10.9013C12.1972 41.959 13.3137 41.0464 13.5715 39.7764C14.425 35.572 16.0741 31.6031 18.473 27.9806C19.1883 26.9004 19.0441 25.4658 18.1279 24.5496L14.2617 20.6836L20.6836 14.2617L24.5498 18.1279C25.4658 19.0441 26.9003 19.1883 27.9806 18.473C31.6033 16.0741 35.5718 14.425 39.7762 13.5716C41.0464 13.3137 41.959 12.1972 41.959 10.9015V5.44922H51.041V10.9015C51.041 12.1973 51.9536 13.3139 53.2236 13.5716C57.4279 14.4252 61.3965 16.0743 65.0192 18.473C66.0994 19.1883 67.534 19.0441 68.45 18.1279L72.3162 14.2617L78.7381 20.6836L74.8719 24.5496C73.9557 25.4658 73.8115 26.9003 74.5268 27.9806C76.9257 31.6033 78.5748 35.572 79.4284 39.7764C79.6861 41.0462 80.8027 41.959 82.0985 41.959H87.5508V51.041Z"/>
</mask>
<path d="M90.2754 36.5098H84.2598C83.3692 33.1367 82.0278 29.9097 80.2545 26.8737L84.5181 22.6103C85.0291 22.0993 85.3162 21.4063 85.3162 20.6836C85.3162 19.961 85.0291 19.2681 84.5181 18.7571L74.2431 8.48207C73.1792 7.41802 71.454 7.41802 70.3899 8.48207L66.1263 12.7457C63.0901 10.9722 59.8633 9.63095 56.4902 8.74037V2.72461C56.4902 1.2199 55.2703 0 53.7656 0H39.2344C37.7297 0 36.5098 1.2199 36.5098 2.72461V8.74037C33.1367 9.63095 29.9099 10.9722 26.8739 12.7455L22.6103 8.48189C21.5464 7.41784 19.8212 7.41784 18.7571 8.48189L8.48207 18.7569C7.97112 19.2679 7.68394 19.9609 7.68394 20.6834C7.68394 21.4062 7.97112 22.0989 8.48207 22.6101L12.7457 26.8736C10.9722 29.9099 9.63095 33.1367 8.74037 36.5098H2.72461C1.2199 36.5098 0 37.7297 0 39.2344V53.7656C0 55.2703 1.2199 56.4902 2.72461 56.4902H8.74018C9.63077 59.8633 10.9722 63.0901 12.7455 66.1261L8.48189 70.3896C7.97094 70.9005 7.68376 71.5935 7.68376 72.3162C7.68376 73.0388 7.97075 73.7317 8.48189 74.2427L18.7569 84.5179C19.2679 85.0289 19.9609 85.3161 20.6834 85.3161C21.406 85.3161 22.0989 85.0289 22.6099 84.5179L26.8736 80.2543C29.9095 82.0276 33.1363 83.3689 36.5094 84.2596V90.2754C36.5094 91.7801 37.7293 93 39.234 93H53.7653C55.27 93 56.4899 91.7801 56.4899 90.2754V84.2598C59.8629 83.3692 63.0898 82.0278 66.1257 80.2545L70.3894 84.5181C70.9003 85.0291 71.5933 85.3162 72.3159 85.3162C73.0386 85.3162 73.7314 85.0291 74.2423 84.5181L84.5174 74.2429C85.0283 73.7319 85.3155 73.039 85.3155 72.3164C85.3155 71.5937 85.0283 70.9009 84.5174 70.3897L80.2537 66.1263C82.0271 63.0903 83.3683 59.8635 84.2591 56.4904H90.2754C91.7801 56.4904 93 55.2705 93 53.7658V39.2346C93 37.7297 91.7801 36.5098 90.2754 36.5098ZM87.5508 51.041H82.0987C80.8028 51.041 79.6863 51.9536 79.4285 53.2236C78.575 57.428 76.9259 61.3967 74.527 65.0192C73.8117 66.0994 73.9559 67.534 74.8721 68.4502L78.7383 72.3162L72.3164 78.7381L68.4502 74.8719C67.5342 73.9557 66.0996 73.8115 65.0193 74.5268C61.3967 76.9257 57.4282 78.5748 53.2238 79.4284C51.9539 79.6861 51.0412 80.8027 51.0412 82.0985V87.5508H41.9592V82.0987C41.9592 80.8028 41.0466 79.6863 39.7766 79.4285C35.5721 78.575 31.6035 76.9259 27.981 74.527C26.9006 73.8115 25.4662 73.9559 24.5502 74.8721L20.684 78.7383L14.2621 72.3164L18.1283 68.4504C19.0445 67.5342 19.1887 66.0997 18.4734 65.0193C16.0745 61.3967 14.4254 57.4282 13.5718 53.2238C13.3137 51.9538 12.1972 51.041 10.9013 51.041H5.44922V41.959H10.9013C12.1972 41.959 13.3137 41.0464 13.5715 39.7764C14.425 35.572 16.0741 31.6031 18.473 27.9806C19.1883 26.9004 19.0441 25.4658 18.1279 24.5496L14.2617 20.6836L20.6836 14.2617L24.5498 18.1279C25.4658 19.0441 26.9003 19.1883 27.9806 18.473C31.6033 16.0741 35.5718 14.425 39.7762 13.5716C41.0464 13.3137 41.959 12.1972 41.959 10.9015V5.44922H51.041V10.9015C51.041 12.1973 51.9536 13.3139 53.2236 13.5716C57.4279 14.4252 61.3965 16.0743 65.0192 18.473C66.0994 19.1883 67.534 19.0441 68.45 18.1279L72.3162 14.2617L78.7381 20.6836L74.8719 24.5496C73.9557 25.4658 73.8115 26.9003 74.5268 27.9806C76.9257 31.6033 78.5748 35.572 79.4284 39.7764C79.6861 41.0462 80.8027 41.959 82.0985 41.959H87.5508V51.041Z" fill="#12A89D" stroke="#12A89D" stroke-width="2" mask="url(#path-2-inside-1)"/>
<line x1="46.75" y1="35.75" x2="46.75" y2="48.25" stroke="#12A89D" stroke-width="5.5" stroke-linecap="round"/>
<line x1="46.75" y1="48.25" x2="59.25" y2="48.25" stroke="#12A89D" stroke-width="5.5" stroke-linecap="round"/>
</svg>
