<svg width="95" height="95" viewBox="0 0 95 95" fill="none" xmlns="http://www.w3.org/2000/svg">
<path d="M2.71692 93.9229C2.26205 93.7928 1.84902 93.5462 1.51865 93.2076C1.20231 92.8314 1.01987 92.3608 1 91.8698C1 91.7696 1 91.6695 1 91.5693C1 62.1789 1 32.7874 1 3.39459C1 2.50751 1.26112 1.76351 2.07308 1.32713C2.40781 1.13742 2.78314 1.0307 3.16762 1.01593C10.8723 0.999241 18.5782 0.995664 26.2853 1.0052C26.5748 0.99575 26.8632 1.04582 27.1327 1.1523C27.4021 1.25879 27.6468 1.41943 27.8517 1.62429C28.0565 1.82915 28.2172 2.07386 28.3237 2.34329C28.4302 2.61273 28.4802 2.90114 28.4708 3.1907V91.2689C28.4708 92.857 28.1739 93.3149 26.7431 93.9229H2.71692ZM5.24938 89.7093H5.62854C11.6902 89.7093 17.7543 89.7093 23.8208 89.7093C24.157 89.7093 24.2428 89.627 24.2428 89.2872C24.2428 61.4087 24.2428 33.529 24.2428 5.64805V5.25816H5.25654L5.24938 89.7093Z" fill="#12A89D" stroke="#12A89D" stroke-width="1.5"/>
<path d="M32.6595 93.9231C32.6595 92.6604 32.6774 91.3978 32.6846 90.1351V89.713H43.2258C43.2258 89.5664 43.2258 89.4519 43.2258 89.3339C43.2258 87.8816 43.2258 86.4294 43.2258 84.9772C43.223 84.9118 43.2333 84.8464 43.256 84.785C43.2787 84.7236 43.3134 84.6673 43.3581 84.6195C44.6923 83.7896 46.0337 82.9741 47.4394 82.1156V89.6951H66.4472V89.3374C66.4472 83.2495 66.4472 77.1687 66.4472 71.0951C66.4307 70.9346 66.402 70.7755 66.3613 70.6194L68.3429 69.4104C69.8452 68.4947 71.3475 67.5754 72.857 66.6705C73.0356 66.5675 73.2375 66.5121 73.4436 66.5095C79.3742 66.5095 85.3047 66.5095 91.2388 66.488C92.5551 66.488 93.4959 66.8994 93.9072 68.2157V92.2276C93.8075 92.6483 93.5928 93.033 93.287 93.3387C92.9813 93.6444 92.5967 93.8591 92.176 93.9588L32.6595 93.9231ZM70.7323 70.7124V89.7094H71.09C77.1732 89.7094 83.2539 89.7094 89.3323 89.7094C89.6435 89.7094 89.7151 89.62 89.7151 89.3196C89.7151 83.234 89.7151 77.1532 89.7151 71.0772V70.7195L70.7323 70.7124Z" fill="#12A89D" stroke="#12A89D" stroke-width="1.5"/>
<path d="M92.1973 93.9231C92.6179 93.8234 93.0026 93.6087 93.3083 93.303C93.614 92.9972 93.8288 92.6126 93.9285 92.1919V93.9231H92.1973Z" fill="white" stroke="#12A89D" stroke-width="1.5"/>
<path d="M50.6087 40.8235L34.2335 31.1658L32.7133 33.7412C32.7133 33.5552 32.6847 33.4622 32.6847 33.3835C32.6847 30.8439 32.6847 28.3043 32.6847 25.7647C32.6896 25.5691 32.7451 25.3781 32.8457 25.2103C35.6619 20.41 38.4841 15.6122 41.3122 10.8167L43.3833 7.3006C43.5217 7.03673 43.714 6.80493 43.9479 6.62024C44.1817 6.43555 44.4517 6.3021 44.7405 6.22856C45.0292 6.15503 45.3302 6.14305 45.6239 6.1934C45.9176 6.24375 46.1974 6.35531 46.4451 6.52083L63.8934 16.7973L66.2112 18.1566C67.4023 18.8719 67.7171 20.0631 67.0124 21.2578L55.3803 41.0274L45.3649 58.0178L35.5963 74.6362C34.7068 76.1528 33.815 77.6694 32.9208 79.186C32.8707 79.2719 32.817 79.3506 32.7205 79.5044C32.7205 79.3577 32.6847 79.2826 32.6847 79.2075C32.6847 76.6357 32.6847 74.0603 32.6847 71.4885C32.6948 71.3145 32.749 71.1458 32.8421 70.9984C34.7688 67.7196 36.7004 64.4396 38.6367 61.1583C38.6903 61.0653 38.7404 60.9652 38.8084 60.8364C38.1717 60.4608 37.5493 60.0888 36.9233 59.724C35.5963 58.9442 34.2693 58.168 32.9494 57.3811C32.8835 57.3428 32.8262 57.2912 32.7813 57.2297C32.7364 57.1681 32.7047 57.0979 32.6883 57.0234C32.6883 55.5283 32.6883 54.0295 32.6883 52.5344C32.6883 52.4914 32.6883 52.4521 32.7169 52.3555L40.9688 57.2058C44.1774 51.7474 47.3823 46.3069 50.6087 40.8235ZM62.3875 20.7928L45.998 11.1601L36.3403 27.5353L52.7262 37.1929L62.3875 20.7928Z" fill="#12A89D" stroke="#12A89D" stroke-width="1.5"/>
<path d="M48.3371 71.6781C53.7597 68.3766 59.1537 65.093 64.5728 61.7879C64.1221 61.0475 63.6893 60.3285 63.2529 59.6167C60.9422 55.8252 58.6339 52.0349 56.328 48.2457C56.2935 48.1902 56.2712 48.128 56.2626 48.0633C56.254 47.9985 56.2592 47.9327 56.2779 47.8701C57.0291 46.5538 57.7981 45.2482 58.5993 43.8783L68.1747 59.5845L84.4032 49.7015C81.1053 44.2789 77.8217 38.8885 74.5202 33.4623L59.3791 42.6836L59.3326 42.6407L60.3449 40.913C61.4537 39.0351 62.5554 37.1537 63.6714 35.2829C63.7722 35.1284 63.9067 34.9988 64.0649 34.9038C67.3509 32.8935 70.6381 30.8869 73.9264 28.8838C75.1784 28.1184 76.3659 28.383 77.1457 29.6457C79.4444 33.4134 81.7408 37.1835 84.0348 40.9559C85.6874 43.6672 87.3327 46.3857 88.996 49.0899C89.5075 49.9197 89.622 50.746 89.064 51.5937C88.864 51.8723 88.6082 52.1062 88.3128 52.2805C81.7885 56.2652 75.2606 60.2451 68.7292 64.2202L40.6897 81.3001C38.1286 82.8596 35.5699 84.4227 33.0136 85.9894C32.9277 86.0395 32.8383 86.0824 32.7131 86.1504C32.7131 86.018 32.7131 85.9143 32.7131 85.7927C32.7131 84.3619 32.7131 82.9562 32.7131 81.5361C32.7065 81.4338 32.7305 81.3319 32.7821 81.2433C32.8337 81.1547 32.9106 81.0836 33.0029 81.0389C36.8302 78.7139 40.6575 76.383 44.4848 74.046L44.7602 73.8672C44.4025 73.2448 44.0162 72.6332 43.6442 72.0215C43.4117 71.6459 43.172 71.2704 42.9574 70.884C42.9336 70.8337 42.9212 70.7788 42.9212 70.7231C42.9212 70.6674 42.9336 70.6124 42.9574 70.5621C43.7014 69.2709 44.4633 67.9832 45.218 66.6955C45.2449 66.6729 45.2737 66.6525 45.3039 66.6347L48.3371 71.6781Z" fill="#12A89D" stroke="#12A89D" stroke-width="1.5"/>
<path d="M14.7177 83.3604C14.0862 83.3561 13.4703 83.163 12.9494 82.8059C12.4285 82.4488 12.0262 81.9441 11.7945 81.3565C11.5627 80.769 11.512 80.1256 11.6488 79.5091C11.7856 78.8925 12.1038 78.3309 12.5623 77.8966C13.0208 77.4623 13.5988 77.1751 14.2219 77.0719C14.845 76.9686 15.4847 77.0542 16.0588 77.3174C16.6329 77.5807 17.1151 78.0097 17.4434 78.5492C17.7717 79.0888 17.9312 79.7142 17.9012 80.345C17.8556 81.1589 17.5004 81.9246 16.9086 82.4852C16.3167 83.0458 15.5329 83.3589 14.7177 83.3604Z" fill="#12A89D" stroke="#12A89D" stroke-width="1.5"/>
</svg>
