<svg width="59" height="70" viewBox="0 0 59 70" fill="none" xmlns="http://www.w3.org/2000/svg">
<path d="M36.7767 44.75C49.855 44.75 59 35.6919 59 22.671C59 9.65 49.855 0.875 36.7767 0.875H11.6771C10.6589 0.875 9.83333 1.69354 9.83333 2.70312V34.1822H1.84375C0.825539 34.1822 0 35.0008 0 36.0103V42.9219C0 43.9315 0.825539 44.75 1.84375 44.75H9.83333V49.625H1.84375C0.825539 49.625 0 50.4435 0 51.4531V57.5469C0 58.5565 0.825539 59.375 1.84375 59.375H9.83333V67.2969C9.83333 68.3065 10.6589 69.125 11.6771 69.125H20.6746C21.6928 69.125 22.5183 68.3065 22.5183 67.2969V59.375H47.3229C48.3411 59.375 49.1667 58.5565 49.1667 57.5469V51.4531C49.1667 50.4435 48.3411 49.625 47.3229 49.625H22.5183V44.75H36.7767ZM22.5183 11.3483H34.6133C41.7917 11.3483 46.1183 15.7831 46.1183 22.671C46.1183 29.6532 41.7917 34.1822 34.4167 34.1822H22.5183V11.3483Z" fill="#12A89D"/>
</svg>
