<svg width="97" height="97" viewBox="0 0 97 97" fill="none" xmlns="http://www.w3.org/2000/svg">
<g clip-path="url(#clip0)">
<path d="M87.3113 55.1822V53.565C87.3113 49.3101 83.8496 45.8484 79.5947 45.8484H66.3921C66.1575 44.2098 65.4044 42.6969 64.2128 41.5052C63.7516 41.0441 63.2358 40.6502 62.6824 40.3226V33.0997C68.4952 29.9874 72.155 23.9567 72.155 17.2435C72.155 9.44652 67.1819 2.57468 59.7801 0.143613C57.9449 -0.459037 56.0515 0.909573 56.0515 2.84351V16.9631H52.2624V2.84332C52.2624 0.908625 50.3675 -0.459416 48.5336 0.143613C41.1518 2.5688 36.1788 9.42094 36.1589 17.195C36.1428 23.9639 39.9408 30.0028 45.6316 33.0806V39.2736C42 39.4883 39.0426 41.1651 38.2586 41.8625L30.8741 48.4288H12.5303C10.9609 48.4288 9.68854 49.7011 9.68854 51.2706V86.8662C9.68854 88.4356 10.9609 89.708 12.5303 89.708H26.6446C30.0534 89.708 33.7282 91.6194 37.2822 93.4677C40.2363 95.0039 43.6971 96.9998 49.1422 96.9998H73.9109C78.1658 96.9998 81.6275 93.5381 81.6275 89.2832V87.666C81.6275 86.3054 81.2721 85.0266 80.6514 83.9154C82.4008 82.4997 83.522 80.3369 83.522 77.9162V76.299C83.522 74.9384 83.1666 73.6598 82.546 72.5486C84.2954 71.1328 85.4165 68.9702 85.4165 66.5496V64.9317C85.4165 63.5712 85.0611 62.2926 84.4405 61.1814C86.1901 59.7657 87.3113 57.6029 87.3113 55.1822ZM81.6277 53.565V55.1822C81.6277 56.3032 80.7157 57.2154 79.5947 57.2154C78.1527 57.2154 68.0823 57.2154 66.4714 57.2154V51.532H79.5947C80.7157 51.532 81.6277 52.444 81.6277 53.565ZM79.7331 64.9317V66.5496C79.7331 67.6704 78.8213 68.5824 77.7003 68.5824C76.5126 68.5824 67.6275 68.5824 66.347 68.5824C66.4273 68.1135 66.4712 67.6323 66.4712 67.1409V62.8988H77.7001C78.8211 62.8988 79.7331 63.8109 79.7331 64.9317ZM77.8386 76.299V77.9162C77.8386 79.0372 76.9266 79.9494 75.8056 79.9494C74.4184 79.9494 65.0897 79.9494 63.6291 79.9494C62.0621 79.9494 60.7873 78.6746 60.7873 77.1076C60.7873 75.5407 62.0621 74.2658 63.6291 74.2658H63.6296H75.8056C76.9266 74.2658 77.8386 75.178 77.8386 76.299ZM41.8425 17.2092C41.8524 13.3411 43.6545 9.80648 46.5788 7.52793V17.2302C46.5788 20.2167 49.0088 22.6465 51.9953 22.6465H56.3186C59.3054 22.6465 61.7351 20.2167 61.7351 17.2302V7.52698C64.6686 9.8116 66.4714 13.3599 66.4714 17.2435C66.4714 22.2892 63.4504 26.7714 58.7749 28.6626C57.7013 29.0968 56.9988 30.139 56.9988 31.2969V39.2462H51.3152V31.2855C51.3152 30.1308 50.6165 29.0911 49.5476 28.6546C44.927 26.768 41.8306 22.1681 41.8425 17.2092ZM39.9048 88.4254C35.9384 86.3626 31.4429 84.0244 26.6446 84.0244H15.3721V54.1122H31.955C32.6512 54.1122 33.3232 53.8566 33.8434 53.3942L41.8709 46.2559C43.2543 45.3877 44.8465 44.9296 46.4879 44.9296H58.7588C59.8766 44.9296 60.7878 45.8342 60.7878 46.9567V67.1409C60.7878 68.7078 59.513 69.9827 57.946 69.9827C56.3768 69.9827 55.1042 68.7099 55.1042 67.1409V57.1889C55.1042 55.7112 53.9815 54.4269 52.5089 54.3039C51.0433 54.1815 49.7382 55.1445 49.4837 56.5897C49.3259 57.1853 47.9948 61.2112 40.8934 61.2112C39.3239 61.2112 38.0516 62.4836 38.0516 64.053C38.0516 65.6224 39.3239 66.8948 40.8934 66.8948C44.6523 66.8948 47.4174 66.0161 49.4206 64.8818V67.1413C49.4206 70.961 51.9203 74.1516 55.31 75.2502C54.7051 77.9604 55.4498 80.7478 57.2814 82.7914C55.1908 85.1238 54.5533 88.3869 55.5925 91.3166H49.1422C45.2629 91.3164 42.8605 89.9628 39.9048 88.4254ZM75.9441 89.2832C75.9441 90.4042 75.0321 91.3164 73.9111 91.3164H63.6296H63.6291C62.0621 91.3164 60.7873 90.0416 60.7873 88.4746C60.7873 86.9077 62.0621 85.6328 63.6291 85.6328H73.9111C75.0321 85.6328 75.9441 86.5449 75.9441 87.666V89.2832Z" fill="#12A89D"/>
</g>
<defs>
<clipPath id="clip0">
<rect width="97" height="97" fill="white"/>
</clipPath>
</defs>
</svg>
