<svg width="26" height="26" viewBox="0 0 26 26" fill="none" xmlns="http://www.w3.org/2000/svg">
<path d="M12.365 0.0163514C5.44127 0.342014 -0.020803 6.06064 5.95641e-05 12.9347C0.00348962 14.9581 0.488403 16.9517 1.4148 18.751L0.035265 25.3959C0.0184328 25.4789 0.0228403 25.5649 0.0480796 25.6458C0.0733189 25.7268 0.118575 25.8 0.179664 25.8589C0.240752 25.9177 0.315701 25.9602 0.397579 25.9824C0.479457 26.0046 0.56562 26.0058 0.648102 25.986L7.21198 24.4436C8.95045 25.3019 10.8589 25.7612 12.7979 25.788C19.8742 25.8961 25.7731 20.3233 25.9935 13.3086C26.2308 5.78578 19.9733 -0.344483 12.365 0.0150485V0.0163514ZM20.1976 20.0342C19.2516 20.9759 18.1289 21.7218 16.8938 22.2292C15.6587 22.7367 14.3355 22.9956 13 22.9912C11.4288 22.996 9.87805 22.6356 8.47025 21.9386L7.55621 21.4866L3.53104 22.4323L4.37858 18.3537L3.92743 17.4784C3.19607 16.062 2.81681 14.4906 2.82172 12.8969C2.82172 10.2005 3.88049 7.6642 5.80245 5.75843C7.71815 3.86399 10.3045 2.80095 13 2.80011C15.72 2.80011 18.2756 3.85005 20.1976 5.75713C21.1445 6.68935 21.8959 7.80078 22.4079 9.02647C22.92 10.2522 23.1823 11.5675 23.1796 12.8956C23.1796 15.5687 22.1039 18.1453 20.1976 20.0355V20.0342Z" fill="#12A89D"/>
<path d="M19.2974 16.3793L16.6937 15.6336C16.5257 15.5851 16.3478 15.5829 16.1787 15.6273C16.0095 15.6716 15.8554 15.7609 15.7323 15.8858L15.0959 16.5338C14.9642 16.6679 14.7961 16.76 14.6127 16.7986C14.4292 16.8372 14.2385 16.8205 14.0644 16.7507C12.8334 16.2532 10.2418 13.9538 9.57978 12.8027C9.48697 12.6402 9.44457 12.4534 9.45803 12.2665C9.47148 12.0795 9.54017 11.9008 9.65528 11.7534L10.2108 11.0348C10.3178 10.8971 10.3854 10.7328 10.4066 10.5594C10.4277 10.386 10.4015 10.2101 10.3308 10.0505L9.23594 7.57762C9.17402 7.4394 9.08106 7.3175 8.96436 7.22152C8.84767 7.12553 8.71042 7.05807 8.56341 7.02443C8.4164 6.9908 8.26364 6.9919 8.11713 7.02767C7.97061 7.06343 7.83435 7.13287 7.71904 7.23054C6.99228 7.8447 6.12933 8.77611 6.0255 9.81056C5.84078 11.6314 6.62282 13.9267 9.58112 16.6843C12.9992 19.869 15.7377 20.2906 17.5189 19.8581C18.5302 19.6141 19.3392 18.6339 19.8475 17.8326C19.9288 17.7054 19.9793 17.5607 19.9948 17.4102C20.0104 17.2598 19.9906 17.1078 19.9371 16.9664C19.8836 16.825 19.7979 16.6983 19.6867 16.5963C19.5756 16.4943 19.4423 16.42 19.2974 16.3793Z" fill="#12A89D"/>
</svg>
